PathFileType	4	(X/Y/Z)	OpenSim_Sub02_EMGStiffKnee_Gyro.trc
DataRate	CameraRate	NumFrames	NumMarkers	Units	OrigDataRate	OrigDataStartFrame	OrigNumFrames
100	100	30	8	m	100	2959	7890
Frame#	Time	torso_imu_offset_imu	pelvis_imu_offset_imu	tibia_r_imu_offset_imu	femur_r_imu_offset_imu	tibia_l_imu_offset_imu	femur_l_imu_offset_imu	toes_r_imu_offset_imu	toes_l_imu_offset_imu
				X1	Y1	Z1	X2	Y2	Z2	X3	Y3	Z3	X4	Y4	Z4	X5	Y5	Z5	X6	Y6	Z6	X7	Y7	Z7	X8		Y8	Z8	

2959	29.58000000	-0.19512843	0.08924400	-0.14009390	-0.34076379	-0.21115135	0.16819930	0.51365825	0.30099614	-1.68449400	0.44092799	0.13854093	0.13788426	-2.12906687	-0.26683876	2.40346715	-0.98308805	-0.30668557	0.18785952	-0.03920834	-1.63524908	-0.12063818	-0.02026420	-0.58935177	0.25302730
2960	29.59000000	-0.23039700	0.09321722	-0.13357420	-0.43897679	-0.17534268	0.15745926	0.47549290	0.27832313	-1.81650748	0.70151073	0.14419339	0.22738677	-0.72184929	-0.49542301	1.86216461	-0.91730096	-0.24932079	0.32697991	0.05699168	-2.00933425	-0.18219880	-0.25391883	0.33156301	0.44369902
2961	29.60000000	-0.27596933	0.08588529	-0.12021907	-0.49538562	-0.15669669	0.12299055	0.35024403	0.23662990	-1.95773609	1.00256063	0.17423679	0.33576990	0.51169212	0.07145155	0.23304161	-0.63867002	-0.30213986	0.52615656	-0.04860465	-2.52770416	-0.21717957	-0.56793698	0.05132965	0.21075264
2962	29.61000000	-0.33460465	0.07218497	-0.12442235	-0.51496845	-0.16342948	0.09832331	0.10292429	0.19033950	-2.12855354	1.25611522	0.21558707	0.49179057	0.87937763	-0.01873411	-0.55738774	-0.18455531	-0.44521677	0.70946279	-0.03734383	-3.15858061	-0.23168059	-0.31698714	0.09831295	0.33288569
2963	29.62000000	-0.39193254	0.05544015	-0.14358232	-0.53324424	-0.14581284	0.08706688	-0.21929746	0.24222306	-2.34535455	1.37406766	0.30810677	0.71596806	1.68229580	-0.15205548	-0.11726119	0.27839852	-0.50794211	0.78506628	0.16756081	-3.77628877	-0.21807948	-0.11578084	-0.06585976	0.31453185
2964	29.63000000	-0.42964743	0.02448349	-0.15878292	-0.54300270	-0.13109737	0.07286511	-0.39964834	0.38476200	-2.55262742	1.29935253	0.50165259	1.00904482	2.17557453	-0.02076152	0.62863784	0.53663592	-0.39668024	0.80054626	-0.00720936	-4.45514339	-0.23195935	-0.21581258	-0.01930111	0.15279854
2965	29.64000000	-0.47202561	-0.03109492	-0.16466899	-0.52043903	-0.14115690	0.05364164	-0.37164308	0.52916420	-2.69484837	1.11559318	0.72851487	1.37048196	1.60575474	0.09061531	1.22003482	0.53738908	-0.22529021	0.76800704	0.14833726	-5.15692509	-0.35363350	0.04456735	-0.10275822	0.14023910
2966	29.65000000	-0.51181308	-0.10171632	-0.18291432	-0.48092571	-0.14046966	0.03462116	-0.34465526	0.59197431	-2.73748310	0.95622259	0.85267647	1.71828047	0.86625442	0.04949791	1.34628102	0.41071874	-0.07386765	0.68101691	0.92035331	-5.73751221	-0.51221671	0.03982558	-0.10290599	0.07785899
2967	29.66000000	-0.54408551	-0.18552429	-0.20935318	-0.45257793	-0.12058132	0.03650079	-0.13614737	0.57690250	-2.69476462	0.84472695	0.88468317	1.98648172	0.37846459	-0.00250110	0.83442668	0.21542927	0.04739299	0.58545660	0.90542673	-6.28144489	-0.74484095	0.06827635	-0.11047832	0.02204015
2968	29.67000000	-0.56569581	-0.26480234	-0.22996005	-0.42596925	-0.08180206	0.06116123	0.34989923	0.47114975	-2.58937240	0.73964289	0.93590839	2.17898086	-0.31378861	-0.08321834	0.27407761	-0.01234839	0.08203302	0.52032571	1.09586793	-6.31006274	-1.07989605	0.09706238	-0.06986118	0.02214051
2969	29.68000000	-0.55142331	-0.28689943	-0.24850226	-0.39078582	-0.00644967	0.07286213	0.92979424	0.27062922	-2.41782961	0.57425765	1.00773574	2.31103602	-0.63322826	-0.09891834	0.07150611	-0.11885002	-0.01374303	0.49572379	1.74352582	-5.99427626	-1.36349994	0.05991882	-0.02788124	0.03981895
2970	29.69000000	-0.52831987	-0.30081845	-0.25316339	-0.34934153	0.09271845	0.07448210	1.28595810	0.11249206	-2.20151469	0.31828700	1.04101986	2.36469102	-0.54714368	-0.05883059	0.36584153	-0.04042592	-0.16578289	0.50596450	1.65848642	-5.69349021	-1.60034042	0.01536551	0.02656624	0.08104230
2971	29.70000000	-0.50091891	-0.31409592	-0.23866882	-0.30490559	0.19640824	0.07194860	1.25903038	0.10276779	-1.97536869	-0.02429102	1.01600836	2.24707586	-0.26749528	-0.01831824	0.85044830	0.13512045	-0.24612703	0.52029059	1.18730643	-4.86533458	-1.58894223	-0.04156769	0.05023031	0.11743040
2972	29.71000000	-0.46284445	-0.26067112	-0.21743684	-0.29062645	0.28456662	0.07391545	1.16557952	0.13238146	-1.75573157	-0.39140069	0.96071297	1.96734275	0.08585347	0.00896715	0.98260480	0.31864913	-0.22213543	0.51564153	-0.86843415	-3.31920384	-1.63070941	-0.09512375	0.04047425	0.15011455
2973	29.72000000	-0.43971983	-0.21579134	-0.18998257	-0.28707824	0.35326123	0.08416448	1.20171111	0.02103425	-1.51454854	-0.70999230	0.93068445	1.65902864	0.30392139	0.04647076	0.75305822	0.45754551	-0.14879401	0.50799689	-2.01149597	-1.21833271	-2.23117967	-0.08169775	0.01838792	0.16234742
2974	29.73000000	-0.42511371	-0.20826084	-0.15733668	-0.29162329	0.38844055	0.09000882	1.08107987	-0.18100749	-1.23916015	-1.00578816	0.89937211	1.40819267	0.44965272	0.13506422	0.53739188	0.51444448	-0.10231200	0.50949488	-1.43710268	0.23542081	-2.83818893	-0.03867000	-0.01555096	0.16096013
2975	29.74000000	-0.41446128	-0.18867633	-0.13269497	-0.34183211	0.37326836	0.11615472	0.22709101	-0.38164528	-0.87722882	-1.28064326	0.83459647	1.29594818	0.54402965	0.20227244	0.54996493	0.49081892	-0.10731572	0.51797082	-1.74862383	0.93956034	-3.12243850	-0.02697877	-0.05634897	0.15488874
2976	29.75000000	-0.42566618	-0.18982340	-0.13019507	-0.42295314	0.33301421	0.14066529	-1.35351233	-0.76202737	-0.32925677	-1.47180624	0.79779625	1.32810138	0.49453296	0.22818095	0.68936621	0.41663075	-0.12519451	0.54838922	-1.10214907	1.76962220	-3.01885099	-0.03512829	-0.12326044	0.16336282
2977	29.76000000	-0.44997721	-0.20500737	-0.13301745	-0.50027275	0.28554714	0.14533363	-3.02057129	-1.23935505	0.41215945	-1.60602820	0.77228906	1.43386589	0.33423332	0.22942207	0.75012480	0.34454209	-0.12265090	0.59694287	-1.07533376	2.11957067	-2.41577673	-0.01396631	-0.18296143	0.16751108
2978	29.77000000	-0.48317207	-0.21977097	-0.13452177	-0.56626992	0.23170451	0.14641649	-4.33284932	-1.52109671	1.24185709	-1.69418125	0.69539329	1.56472028	0.08832210	0.23189284	0.71949859	0.27756599	-0.10424404	0.64856319	-1.18833184	2.51572612	-1.51427491	-0.01373738	-0.23488129	0.16997844
2979	29.78000000	-0.51912782	-0.24921649	-0.13035464	-0.62146481	0.19639940	0.13089016	-5.18066660	-1.46585839	2.03730748	-1.64805642	0.57884321	1.65447203	-0.08162858	0.24771436	0.68371945	0.17445234	-0.07666690	0.69716726	-0.83131660	2.93486625	-0.47587841	-0.03824393	-0.28550784	0.18315446
2980	29.79000000	-0.55509762	-0.27294023	-0.12902485	-0.67469846	0.17777125	0.10417094	-5.38396872	-1.24148586	2.65222948	-1.38099780	0.48400069	1.65939522	-0.15421553	0.29140178	0.68898440	0.06290116	-0.05716577	0.72787616	-0.65781507	3.23612329	0.49550623	-0.03189224	-0.33002721	0.18674066
2981	29.80000000	-0.58602514	-0.29005667	-0.14198266	-0.72153677	0.17332965	0.07816429	-4.78548007	-1.09587729	2.92936719	-0.94382182	0.45269258	1.56468088	-0.18347495	0.29869654	0.71096883	-0.03029077	-0.04187449	0.73735830	-0.53199557	3.48049350	1.22983905	-0.04662591	-0.36927150	0.18655958
2982	29.81000000	-0.59803115	-0.30639214	-0.16403433	-0.74665438	0.18579499	0.06556365	-3.75693101	-1.00557248	3.08842956	-0.45736454	0.48097779	1.39505834	-0.14083357	0.31887428	0.72771140	-0.10245619	-0.03282376	0.72467214	-0.47996098	3.70881019	1.66552871	-0.05663169	-0.41245901	0.18456466
2983	29.82000000	-0.59211742	-0.32630221	-0.18946487	-0.72197066	0.21303272	0.06075059	-2.73607905	-0.88755485	3.34539894	0.01175791	0.52210422	1.19496928	-0.09707390	0.34648713	0.76753017	-0.15138288	-0.04109649	0.69166527	-0.72099073	3.94471036	1.84232700	-0.06165864	-0.45729147	0.18449917
2984	29.83000000	-0.58033201	-0.34549954	-0.20456551	-0.67605947	0.23854484	0.07131573	-1.82295349	-0.77608235	3.66999848	0.45218713	0.54412738	1.01451952	-0.05803441	0.36055126	0.80673104	-0.17876312	-0.04635872	0.64858052	-1.08102853	4.18823586	1.80175444	-0.05366253	-0.50087222	0.18803743
2985	29.84000000	-0.55182467	-0.35621261	-0.20922690	-0.62489414	0.25411238	0.09208687	-0.86625145	-0.72645689	4.03431221	0.83662356	0.56374922	0.83349017	-0.03427167	0.37574400	0.82043412	-0.16425865	-0.02195419	0.60729870	-1.33489863	4.45635086	1.60122554	-0.05184239	-0.57383479	0.19553677
2986	29.85000000	-0.51507301	-0.35662349	-0.21177516	-0.55227289	0.27617821	0.10347464	0.24012746	-0.69962282	4.37255043	1.13101615	0.58324691	0.63547979	-0.01669107	0.37273268	0.81221520	-0.09908697	0.01055088	0.57760984	-1.50302030	4.70642113	1.32895903	-0.02919707	-0.62150612	0.18677052
2987	29.86000000	-0.48035327	-0.35053109	-0.20877892	-0.44930194	0.29820520	0.11215714	1.36881675	-0.67863810	4.61166098	1.32831403	0.59323452	0.44391673	-0.02586210	0.39843875	0.80696781	-0.00178923	0.04167173	0.56900104	-1.58234578	4.94618083	1.06620407	0.01839445	-0.65886669	0.18662184
2988	29.87000000	-0.44526409	-0.34015893	-0.19506013	-0.33682996	0.30713000	0.09876840	2.36646792	-0.66515047	4.76497393	1.43390953	0.59926176	0.26693627	-0.00369265	0.40452379	0.82451757	0.11507779	0.06310756	0.55985031	-1.66878081	5.12248250	0.89141173	-0.00324957	-0.68866329	0.19797998
